<?xml version="1.0" encoding="utf-8"?>
<!-- Generator: Adobe Illustrator 15.0.0, SVG Export Plug-In . SVG Version: 6.00 Build 0)  -->
<!DOCTYPE svg PUBLIC "-//W3C//DTD SVG 1.1//EN" "http://www.w3.org/Graphics/SVG/1.1/DTD/svg11.dtd">
<svg version="1.1" id="Capa_1" xmlns="http://www.w3.org/2000/svg" xmlns:xlink="http://www.w3.org/1999/xlink" x="0px" y="0px"
	 width="609.451px" height="793.699px" viewBox="0 0 609.451 793.699" enable-background="new 0 0 609.451 793.699"
	 xml:space="preserve">
<g>
	<g>
		<path fill="#FFFFFF" d="M484.549,540.892c-2.214-2.214-5.285-3.487-8.415-3.487c-3.131,0-6.202,1.273-8.416,3.487
			s-3.487,5.285-3.487,8.416c0,3.13,1.273,6.201,3.487,8.415c2.214,2.227,5.285,3.488,8.416,3.488c3.13,0,6.201-1.262,8.415-3.488
			c2.214-2.214,3.488-5.285,3.488-8.415C488.037,546.177,486.762,543.108,484.549,540.892z"/>
	</g>
</g>
<g>
	<g>
		<path fill="#FFFFFF" d="M561.838,92.126H47.613C21.359,92.126,0,113.486,0,139.74v373.863c0,26.254,21.359,47.613,47.613,47.613
			h186.883v59.751c-34.915,3.401-62.294,32.912-62.294,68.705c0,6.574,5.329,11.902,11.903,11.902h241.241
			c6.574,0,11.903-5.328,11.903-11.902c0-36.602-28.634-66.626-64.674-68.888v-59.568h55.549c6.574,0,11.903-5.329,11.903-11.903
			s-5.329-11.903-11.903-11.903H47.613c-13.127,0-23.807-10.68-23.807-23.807V139.74c0-13.127,10.68-23.807,23.807-23.807h514.225
			c13.127,0,23.807,10.68,23.807,23.807v373.863c0,13.127-10.68,23.807-23.807,23.807h-44.439c-6.574,0-11.903,5.329-11.903,11.903
			s5.329,11.903,11.903,11.903h44.439c26.254,0,47.613-21.359,47.613-47.613V139.74C609.451,113.485,588.092,92.126,561.838,92.126z
			 M258.302,561.216h90.465v59.417h-90.465V561.216z M368.21,644.44c20.823,0,38.405,14.145,43.645,33.33H197.596
			c5.237-19.186,22.819-33.33,43.644-33.33H368.21z"/>
	</g>
</g>
<g>
	<g>
		<path fill="#FFFFFF" d="M311.951,502.803c-2.214-2.215-5.285-3.488-8.416-3.488s-6.202,1.273-8.416,3.488
			c-2.214,2.214-3.487,5.284-3.487,8.415c0,3.143,1.273,6.202,3.487,8.416c2.214,2.226,5.285,3.487,8.416,3.487
			s6.202-1.262,8.416-3.487c2.214-2.214,3.487-5.273,3.487-8.416C315.438,508.087,314.165,505.017,311.951,502.803z"/>
	</g>
</g>
<g>
	<g>
		<path fill="#FFFFFF" d="M174.022,310.329l58.321-58.32c4.649-4.648,4.649-12.186,0.001-16.833c-4.648-4.648-12.186-4.648-16.835,0
			l-66.737,66.736c-4.647,4.648-4.647,12.186,0,16.835l66.737,66.737c2.325,2.325,5.371,3.486,8.417,3.486s6.094-1.161,8.417-3.486
			c4.648-4.648,4.648-12.186,0-16.835L174.022,310.329z"/>
	</g>
</g>
<g>
	<g>
		<path fill="#FFFFFF" d="M460.677,301.912l-66.737-66.737c-4.647-4.647-12.186-4.647-16.835,0c-4.647,4.648-4.647,12.186,0,16.835
			l58.322,58.32l-58.322,58.32c-4.646,4.648-4.646,12.186,0.002,16.834c2.324,2.325,5.37,3.486,8.417,3.486
			c3.046,0,6.093-1.161,8.416-3.486l66.737-66.737C465.325,314.098,465.325,306.562,460.677,301.912z"/>
	</g>
</g>
<g>
	<g>
		<path fill="#FFFFFF" d="M325.624,236.786c-6.349-1.705-12.877,2.067-14.579,8.417L275.408,378.2
			c-1.7,6.35,2.068,12.877,8.417,14.579c1.032,0.275,2.069,0.408,3.089,0.408c5.256,0,10.065-3.508,11.49-8.825l35.637-132.997
			C335.743,245.014,331.974,238.489,325.624,236.786z"/>
	</g>
</g>
<g>
	<g>
		<path fill="#FFFFFF" d="M549.933,139.838H360.671c-6.574,0-11.903,5.329-11.903,11.903s5.329,11.903,11.903,11.903h177.36v297.583
			H71.42V163.645h182.716c6.574,0,11.904-5.329,11.904-11.903s-5.33-11.903-11.904-11.903H59.516
			c-6.574,0-11.903,5.329-11.903,11.903v321.39c0,6.574,5.329,11.903,11.903,11.903h490.417c6.574,0,11.904-5.329,11.904-11.903
			v-321.39C561.838,145.167,556.508,139.838,549.933,139.838z"/>
	</g>
</g>
<g>
	<g>
		<path fill="#FFFFFF" d="M315.521,143.323c-2.214-2.214-5.285-3.488-8.415-3.488c-3.131,0-6.202,1.274-8.416,3.488
			s-3.487,5.285-3.487,8.415c0,3.131,1.273,6.202,3.487,8.428c2.214,2.214,5.285,3.476,8.416,3.476c3.13,0,6.201-1.262,8.415-3.476
			c2.215-2.226,3.488-5.285,3.488-8.428C319.01,148.608,317.736,145.536,315.521,143.323z"/>
	</g>
</g>
</svg>
