<?xml version="1.0" encoding="utf-8"?>
<!-- Generator: Adobe Illustrator 15.0.0, SVG Export Plug-In . SVG Version: 6.00 Build 0)  -->
<!DOCTYPE svg PUBLIC "-//W3C//DTD SVG 1.1//EN" "http://www.w3.org/Graphics/SVG/1.1/DTD/svg11.dtd">
<svg version="1.1" id="Capa_1" xmlns="http://www.w3.org/2000/svg" xmlns:xlink="http://www.w3.org/1999/xlink" x="0px" y="0px"
	 width="512px" height="512px" viewBox="0 0 512 512" enable-background="new 0 0 512 512" xml:space="preserve">
<path fill="#FFFFFF" d="M72.34,274.18c-2.988,2.914-3.051,7.699-0.137,10.688c1.48,1.52,3.445,2.281,5.41,2.281
	c1.902,0,3.809-0.711,5.277-2.145c15.105-14.723,8.918-26.84,4.82-34.859c-3.848-7.523-5.438-10.641,2.668-18.27
	c3.035-2.859,3.184-7.645,0.32-10.68c-2.859-3.043-7.645-3.184-10.68-0.324c-16.371,15.406-9.992,27.891-5.77,36.152
	C77.941,264.246,79.469,267.235,72.34,274.18z"/>
<path fill="#FFFFFF" d="M114.176,233.66c-2.988,2.914-3.051,7.699-0.137,10.688c1.48,1.52,3.445,2.281,5.414,2.281
	c1.898,0,3.805-0.711,5.273-2.145c15.113-14.73,8.91-26.848,4.805-34.863c-3.852-7.523-5.445-10.641,2.656-18.266
	c3.039-2.859,3.184-7.645,0.324-10.68c-2.863-3.043-7.648-3.184-10.684-0.324c-16.371,15.41-9.98,27.895-5.75,36.156
	C119.773,223.727,121.301,226.715,114.176,233.66z"/>
<path fill="#FFFFFF" d="M225.222,190.828c1.957,0,3.91-0.758,5.391-2.27c2.461-2.184,13.465-2.16,15.895,0.023
	c2.945,2.961,7.73,2.977,10.688,0.035c2.961-2.941,2.977-7.727,0.035-10.688c-5.465-5.504-14.805-6.125-18.73-6.125
	c-0.051,0-0.102,0-0.152,0c-3.773,0.016-13.129,0.648-18.523,6.168c-2.918,2.984-2.875,7.781,0.113,10.699
	C221.406,190.11,223.316,190.828,225.222,190.828z"/>
<path fill="#FFFFFF" d="M286.429,190.828c1.957,0,3.91-0.758,5.387-2.27c2.461-2.184,13.469-2.16,15.898,0.023
	c2.941,2.961,7.727,2.977,10.688,0.035s2.977-7.727,0.035-10.688c-5.469-5.504-14.805-6.125-18.73-6.125c-0.055,0-0.105,0-0.152,0
	c-3.773,0.016-13.129,0.648-18.523,6.168c-2.918,2.984-2.875,7.781,0.109,10.695C282.613,190.11,284.519,190.828,286.429,190.828z"
	/>
<path fill="#FFFFFF" d="M269.886,98.145c4.172,0,7.555-3.383,7.555-7.559V55.879c0-4.172-3.383-7.555-7.555-7.555
	c-4.176,0-7.559,3.383-7.559,7.555v34.707C262.328,94.762,265.711,98.145,269.886,98.145z"/>
<path fill="#FFFFFF" d="M218.574,64.012c-4.172,0-7.555,3.383-7.555,7.559v34.68c0,4.172,3.383,7.555,7.555,7.555
	c4.176,0,7.559-3.383,7.559-7.555v-34.68C226.133,67.395,222.75,64.012,218.574,64.012z"/>
<path fill="#FFFFFF" d="M321.195,113.805c4.172,0,7.555-3.383,7.555-7.559v-34.68c0-4.172-3.383-7.555-7.555-7.555
	c-4.176,0-7.559,3.383-7.559,7.555v34.68C313.636,110.422,317.019,113.805,321.195,113.805z"/>
<path fill="#FFFFFF" d="M482.679,261.981c16.168,0,29.32-13.164,29.32-29.344v-65.805c0-16.176-13.152-29.34-29.32-29.34h-32.082
	c-16.168,0-29.32,13.164-29.32,29.34v65.805c0,16.18,13.152,29.344,29.32,29.344h8.484v105.828h-6.258
	c-2.164,0-4.266,0.273-6.27,0.785l-7.211-30.547c-8.379-35.52-37.879-54.727-87.684-57.086c-0.035-0.004-0.07-0.004-0.105-0.004
	c-4.012-0.133-7.438-0.855-10.465-2.293c-0.117-0.055-0.23-0.117-0.352-0.168c-3.605-1.789-6.648-4.633-9.449-8.746
	c1.609-1.238,3.203-2.504,4.746-3.824c21.848-18.652,33.875-42.316,33.875-66.641v-48.652c0.113-0.746,0.109-1.484,0-2.199V98.828
	c14.152-10.375,19.992-25.207,15.656-40.367c-5.285-18.48-24.148-31.387-45.879-31.387h-21.316
	C311.797,11.906,297.5,2.031,279.097,0.27c-22.312-2.133-44.027,8.516-55.496,26.805h-20.363c-22.043,0-41.184,13.098-46.547,31.852
	c-4.285,14.996,1.449,29.652,15.395,39.898v87.156v0.07v17.156c0,25.48,15.523,45.527,28.547,57.852
	c3.121,2.957,6.426,5.77,9.855,8.426c-2.859,4.273-5.969,7.215-9.68,9.043c-0.012,0.008-0.02,0.012-0.031,0.016
	c-3.094,1.52-6.602,2.277-10.73,2.414c-0.035,0-0.07,0.004-0.105,0.004c-7.645,0.363-14.809,1.125-21.492,2.281
	c-0.027,0.004-0.055,0.008-0.082,0.016c-32.891,5.707-54.137,21.012-63.359,45.668H25.543C11.457,328.926,0,340.403,0,354.512
	c0,14.094,11.457,25.562,25.543,25.562h19.641c7.555,17.566,19.242,32.527,34.168,43.805h-7.348
	c-12.312,0-22.328,10.023-22.328,22.344v15.434c0,12.32,10.016,22.344,22.328,22.344h44.262c4.172,0,7.555-3.383,7.555-7.555
	c0-4.176-3.383-7.559-7.555-7.559H72.004c-3.98,0-7.215-3.242-7.215-7.23v-15.434c0-3.988,3.238-7.23,7.215-7.23h157.395
	c3.473,0,6.379,2.469,7.066,5.75c0.023,0.25,0.062,0.496,0.113,0.742c0.027,0.242,0.039,0.488,0.039,0.738v15.434
	c0,3.988-3.238,7.23-7.219,7.23h-78.711c-4.172,0-7.555,3.383-7.555,7.559c0,4.172,3.383,7.555,7.555,7.555h78.711
	c12.316,0,22.332-10.023,22.332-22.344v-10.164h175.805c0.633,13.43,11.73,24.156,25.285,24.156h13.816
	c21.578,0,39.133-17.566,39.133-39.16v-29.52c0-19.004-13.602-34.887-31.578-38.418v-106.57H482.679z M424.633,341.52l8.445,35.793
	c-3.48,4.34-5.57,9.844-5.57,15.832v43.234h-21.492l-12.355-71.547c-1.527-9.109-6.758-15.973-13.824-18.824v-45.941
	C404.851,306.473,419.597,320.168,424.633,341.52z M364.722,297.246v47.312h-19.367v-49.023c1.785,0.277,3.66,0.457,5.641,0.523
	C355.812,296.289,360.379,296.692,364.722,297.246z M293.781,344.559c-3.891-9.18-12.984-15.633-23.559-15.633h-58.273v-23.031
	c14.414,10.52,35.324,15.219,53.648,15.922c1.602,0.062,3.234,0.094,4.891,0.094c19.941,0,43.52-4.578,59.754-16.672v39.32H293.781z
	 M257.304,359.219c1.242-5.621,1.406-10.773,0.531-15.184h12.387c5.766,0,10.457,4.699,10.457,10.477
	c0,5.762-4.691,10.445-10.457,10.445h-14.359C256.39,363.063,256.875,361.153,257.304,359.219z M354.797,155.578v20.367
	c-7.59-3.289-17.352-10.176-18.812-24.027C342.265,152.985,348.539,154.207,354.797,155.578z M205.691,151.926
	c-1.457,13.543-10.887,20.445-18.492,23.84v-20.203C193.351,154.199,199.519,152.989,205.691,151.926z M187.199,203.207v-11.332
	c4.684-1.527,11.078-4.234,17.062-8.855c7.73-5.961,16.379-16.414,16.75-33.422c11.383-1.5,22.754-2.492,34.039-2.953
	c4.172-0.168,7.414-3.688,7.246-7.855c-0.172-4.172-3.711-7.398-7.859-7.246c-13.895,0.566-27.906,1.902-41.918,3.98
	c-0.062,0.004-0.125,0.004-0.188,0.012c-0.27,0.031-0.531,0.074-0.793,0.129c-8.121,1.227-16.242,2.703-24.344,4.43V94.821
	c0-2.609-1.344-5.035-3.562-6.414c-10.754-6.699-15.164-15.691-12.406-25.328c2.965-10.379,14.914-20.891,32.012-20.891h24.75
	c2.836,0,5.434-1.586,6.727-4.109c9.066-17.691,28.094-24.184,42.941-22.762c14.125,1.352,24.652,9.359,28.16,21.426
	c0.938,3.227,3.895,5.445,7.258,5.445h26.613c17.523,0,28.531,10.594,31.344,20.434c2.758,9.652-1.859,19.051-12.672,25.785
	c-2.219,1.379-3.562,3.805-3.562,6.414v45.277c-8.145-1.711-16.312-3.164-24.48-4.387c-0.312-0.074-0.633-0.141-0.961-0.176
	c-0.102-0.012-0.203-0.012-0.305-0.02c-12.73-1.863-25.457-3.145-38.086-3.797c-4.148-0.219-7.723,2.988-7.938,7.156
	s2.992,7.723,7.16,7.938c10.109,0.52,20.289,1.477,30.484,2.809c0.363,17.742,9.688,28.398,18.016,34.395
	c5.766,4.148,11.734,6.586,16.109,7.973v7.297c0,19.828-10.148,39.414-28.574,55.148c-16.375,13.977-37.812,23.289-55.938,24.301
	c-0.441,0.023-0.898,0.039-1.371,0.039c-10.602-0.004-27.695-6.168-43.797-17.297c-0.246-0.195-0.508-0.371-0.773-0.535
	c-4.59-3.223-9.086-6.852-13.32-10.859C200.156,239.797,187.199,223.313,187.199,203.207z M268.918,293.887
	c0.746,0,1.484-0.023,2.203-0.062c15.48-0.863,32.328-6.488,47.648-15.582c2.227,3.273,4.977,6.535,8.438,9.355
	c-12.336,14.293-38.48,19.98-61.027,19.117c-23.434-0.898-43.141-8.379-51.734-19.156c3.492-2.859,6.254-6.164,8.492-9.477
	C238.847,287.852,255.812,293.887,268.918,293.887z M190.605,296.063c2.203-0.078,4.273-0.297,6.234-0.629v33.492h-19.367v-31.758
	C181.636,296.656,186.008,296.281,190.605,296.063z M162.359,299.914v29.012h-40.867C128.797,314.52,142.316,304.91,162.359,299.914
	z M25.543,364.957c-5.75,0-10.43-4.684-10.43-10.445c0-5.777,4.68-10.477,10.43-10.477h12.395c-0.879,4.41-0.715,9.562,0.527,15.184
	v0.012c0.43,1.934,0.918,3.84,1.434,5.727H25.543z M109.691,423.879c-28.938-11.848-49.48-36.527-56.469-67.922
	c-1.281-5.785-0.68-9.895,0.418-11.266c0.16-0.195,0.527-0.652,2.18-0.652h54.613h0.027h0.023h129.461
	c1.664,0,2.035,0.457,2.191,0.652c1.094,1.363,1.688,5.469,0.41,11.262c-6.75,30.492-27.527,55.781-55.723,67.926H109.691z
	 M249.441,436.379c-3.645-7.398-11.258-12.5-20.039-12.5h-13.035c14.801-11.41,26.566-26.48,34.137-43.809h19.719
	c12.336,0,22.656-8.77,25.051-20.402h77.004c5.043,0,6.344,6.879,6.48,7.699l11.922,69.012H249.441z M490.656,406.969v29.52
	c0,13.258-10.773,24.047-24.02,24.047h-13.812c-5.629,0-10.207-4.598-10.207-10.25v-57.141c0-3.121,1.406-5.914,3.613-7.789
	c0.07-0.055,0.137-0.109,0.203-0.168c1.75-1.414,3.973-2.266,6.387-2.266h13.816C479.883,382.922,490.656,393.711,490.656,406.969z
	 M436.386,232.637v-65.805c0-7.844,6.375-14.227,14.211-14.227h32.082c7.832,0,14.207,6.383,14.207,14.227v65.805
	c0,7.848-6.375,14.23-14.207,14.23h-32.082C442.761,246.867,436.386,240.485,436.386,232.637z"/>
</svg>
