<?xml version="1.0" encoding="utf-8"?>
<!-- Generator: Adobe Illustrator 15.0.0, SVG Export Plug-In . SVG Version: 6.00 Build 0)  -->
<!DOCTYPE svg PUBLIC "-//W3C//DTD SVG 1.1//EN" "http://www.w3.org/Graphics/SVG/1.1/DTD/svg11.dtd">
<svg version="1.1" id="Capa_1" xmlns="http://www.w3.org/2000/svg" xmlns:xlink="http://www.w3.org/1999/xlink" x="0px" y="0px"
	 width="512px" height="512px" viewBox="0 0 512 512" enable-background="new 0 0 512 512" xml:space="preserve">
<path fill="#FFFFFF" d="M331.051,431.656c6.461-6.996,9.238-15.574,9.238-25.059c0-9.512-2.723-18.148-9.238-25.141
	c-6.348-6.82-14.367-9.965-23.605-9.965c-9.266,0-17.371,3.059-23.773,9.852c-6.547,6.965-9.238,15.574-9.238,25.086
	c0,9.57,2.691,18.289,9.266,25.312c6.375,6.82,14.395,9.965,23.66,9.965C316.652,441.707,324.699,438.535,331.051,431.656z
	 M296.988,420.36c-3.09-3.938-4.023-8.949-4.023-13.848c0-4.867,1.02-9.684,4.137-13.504c2.664-3.285,6.035-4.926,10.258-4.926
	c4.25,0,7.707,1.559,10.344,4.926c3.09,3.906,4.051,8.805,4.051,13.676s-1.02,9.738-4.078,13.617
	c-2.664,3.367-6.066,4.984-10.316,4.984C303.082,425.285,299.652,423.727,296.988,420.36z"/>
<path fill="#FFFFFF" d="M264.543,372.625h-33.266c-2.266,0-4.25,0.875-5.809,2.52c-1.531,1.613-2.352,3.566-2.352,5.805
	c0,2.348,0.82,4.387,2.492,6.027c1.559,1.473,3.43,2.352,5.582,2.352h7.766v42.922c0,2.461,0.906,4.613,2.633,6.34l0.031,0.059
	l0.055,0.027c1.812,1.613,3.969,2.605,6.406,2.605c2.406,0,4.504-0.965,6.176-2.691c1.699-1.754,2.605-3.879,2.605-6.34v-42.836
	h7.68c2.238,0,4.223-0.82,5.809-2.438c1.586-1.613,2.438-3.594,2.438-5.859c0-2.293-0.82-4.332-2.41-5.973
	C268.793,373.5,266.808,372.625,264.543,372.625z"/>
<path fill="#FFFFFF" d="M200.105,422.707c-1.441,1.105-3.199,1.5-5.016,1.5c-2.805,0-6.062-0.988-8.668-1.953
	c-1.844-0.648-4.961-1.781-6.887-1.781c-2.27,0-4.25,0.848-5.754,2.547c-1.559,1.727-2.238,3.82-2.238,6.113v0.453
	c0,4.359,3.43,7.105,7.027,8.832c4.875,2.324,10.484,3.031,15.812,3.031c6.914,0,13.629-1.672,18.93-6.371
	c4.957-4.414,7.281-10.078,7.281-16.73c0-7.023-2.719-12.742-8.73-16.422c-3.711-2.379-8.781-3.965-13.004-5.18
	c-1.699-0.453-3.398-0.965-5.043-1.586c-0.566-0.199-1.645-0.594-2.156-0.965c-0.535-0.453-1.16-1.074-1.16-1.84
	c0-1.074,0.539-1.812,1.359-2.434c1.191-0.879,2.578-1.219,4.023-1.219c1.387,0,3.176,0.453,4.504,0.824l2.523,0.875
	c1.559,0.512,3.629,1.164,5.27,1.164c2.297,0,4.25-0.906,5.781-2.605c1.531-1.672,2.297-3.711,2.297-5.977
	c0-3.934-2.691-6.625-5.953-8.406c-4.051-2.18-8.727-2.918-13.258-2.918c-6.66,0-12.867,1.754-17.996,6.117
	c-4.816,4.16-7.254,9.512-7.254,15.91c0,6.086,2.242,11.156,7.367,14.496c1.531,1.02,3.402,1.812,5.129,2.492
	c2.523,0.961,5.129,1.781,7.738,2.547c2.406,0.707,5.242,1.527,7.535,2.574c0.625,0.285,1.473,0.766,1.844,1.387
	c0.34,0.625,0.48,1.359,0.48,2.066C201.89,420.727,201.297,421.801,200.105,422.707z"/>
<path fill="#FFFFFF" d="M427.476,438.617c1.758,1.699,3.855,2.664,6.289,2.664c2.496,0,4.676-0.965,6.375-2.805
	c1.672-1.785,2.582-3.934,2.582-6.398v-22.934l16.633-22.762c1.188-1.613,1.754-3.453,1.754-5.438c0-2.492-0.961-4.641-2.773-6.34
	c-1.73-1.672-3.855-2.605-6.266-2.605c-3.086,0-5.582,1.359-7.309,3.906l-10.996,15.77l-10.906-15.77
	c-1.703-2.578-4.223-3.906-7.312-3.906c-2.523,0-4.789,0.879-6.574,2.691c-1.699,1.699-2.664,3.82-2.664,6.254
	c0,2.012,0.766,3.852,1.957,5.438l16.461,22.762v22.934C424.726,434.625,425.636,436.864,427.476,438.617z"/>
<path fill="#FFFFFF" d="M400.527,394.481c0-6.23-2.18-11.578-6.855-15.742c-4.758-4.246-10.625-6-16.973-6h-16.434
	c-2.523,0-4.734,0.875-6.492,2.66c-1.812,1.812-2.664,4.078-2.664,6.625v50.055c0,2.52,0.879,4.73,2.664,6.512l0.031,0.059
	l0.027,0.027c1.84,1.613,3.965,2.605,6.43,2.605c2.41,0,4.562-0.848,6.293-2.578c1.727-1.754,2.578-3.906,2.578-6.371v-14.465
	l16.012,19.703c1.812,2.238,4.137,3.711,7.055,3.711c2.438,0,4.617-0.879,6.434-2.547l0.055-0.031l0.027-0.055
	c1.645-1.812,2.609-3.938,2.609-6.398c0-2.238-0.824-4.191-2.324-5.859l-12.07-13.281c2.039-0.566,4.109-1.328,5.723-2.434
	C398.207,406.852,400.527,401.133,400.527,394.481z M380.89,398.754c-1.16,1.105-2.492,1.672-4.109,1.672h-7.562v-10.898h7.395
	c1.613,0,3.059,0.422,4.223,1.613l0.027,0.027l0.059,0.027c1.102,0.992,1.699,2.152,1.699,3.652
	C382.621,396.406,382.023,397.653,380.89,398.754z"/>
<path fill="#FFFFFF" d="M114.789,438.735c1.727,1.754,3.879,2.633,6.344,2.633c2.496,0,4.648-0.934,6.379-2.746
	c1.672-1.758,2.578-3.852,2.578-6.285v-51.219c0-2.52-0.879-4.727-2.637-6.539c-1.727-1.727-3.852-2.66-6.316-2.66
	s-4.59,1.047-6.293,2.828c-1.672,1.785-2.664,3.91-2.664,6.371v16.363H88.687v-16.363c0-2.492-0.875-4.672-2.578-6.453
	c-1.699-1.785-3.824-2.746-6.289-2.746c-2.496,0-4.648,1.02-6.379,2.828c-1.699,1.785-2.664,3.91-2.664,6.371v51.219
	c0,2.488,0.879,4.668,2.664,6.426c1.758,1.727,3.91,2.605,6.379,2.605c2.465,0,4.617-0.879,6.316-2.633
	c1.73-1.754,2.551-3.934,2.551-6.398v-18.148h23.492v18.145C112.179,434.824,113.058,436.977,114.789,438.735z"/>
<path fill="#FFFFFF" d="M145.445,374.746c-1.672,1.785-2.664,3.91-2.664,6.371v51.133c0,2.461,0.879,4.645,2.609,6.398
	c1.727,1.754,3.91,2.633,6.348,2.633c2.465,0,4.617-0.879,6.348-2.633c1.727-1.727,2.605-3.852,2.605-6.316v-51.215
	c0-2.492-0.852-4.672-2.578-6.457c-1.699-1.781-3.824-2.746-6.293-2.746C149.328,371.914,147.176,372.938,145.445,374.746z"/>
<path fill="#FFFFFF" d="M501.918,148.727H126.601l368.473-71.234c2.625-0.508,4.945-2.039,6.441-4.254
	c1.5-2.219,2.055-4.938,1.543-7.566l-11.133-57.5c-1.062-5.469-6.352-9.047-11.816-7.984l-105.594,20.41
	c-0.219,0.035-0.441,0.074-0.66,0.125L54.656,82.422c-0.035,0.008-0.066,0.012-0.102,0.02L8.172,91.406
	c-2.629,0.512-4.945,2.039-6.441,4.258c-1.5,2.215-2.055,4.938-1.547,7.562l10.953,56.551v320.148
	c0,5.57,4.516,10.086,10.086,10.086h192.543c5.57,0,10.086-4.516,10.086-10.086c0-5.566-4.516-10.082-10.086-10.082H31.304V227.473
	h44.77c0.008,0,0.02,0.004,0.027,0.004c0.004,0,0.008-0.004,0.016-0.004h81.281c0.008,0,0.02,0.004,0.027,0.004
	c0.004,0,0.012-0.004,0.016-0.004h81.312c0.008,0,0.016,0.004,0.023,0.004s0.012-0.004,0.02-0.004h81.281
	c0.008,0,0.016,0.004,0.023,0.004s0.012-0.004,0.02-0.004h81.281c0.008,0,0.016,0.004,0.023,0.004s0.012-0.004,0.02-0.004h90.387
	v242.371H304.554c-5.57,0-10.086,4.516-10.086,10.082c0,5.57,4.516,10.086,10.086,10.086h197.363
	c5.566,0,10.082-4.516,10.082-10.086V158.813C512,153.242,507.484,148.727,501.918,148.727z M340.293,207.305l28.836-38.41h56.102
	l-28.836,38.41H340.293z M258.961,207.305l28.816-38.41h56.129l-28.836,38.41H258.961z M177.613,207.305l28.836-38.41h56.113
	l-28.816,38.41H177.613z M96.289,207.305l28.836-38.41h56.105l-28.836,38.41H96.289z M31.304,158.813
	c0-5.68,4.629-10.301,10.32-10.301c5.688,0,10.316,4.621,10.316,10.301s-4.629,10.301-10.316,10.301
	C35.933,169.114,31.304,164.492,31.304,158.813z M134.058,87.617l40.332,31.328l-53.547,10.352L80.531,97.965L134.058,87.617z
	 M213.906,72.184l40.328,31.324l-53.516,10.348l-40.332-31.328L213.906,72.184z M293.754,56.75l40.324,31.324l-53.516,10.344
	l-40.328-31.32L293.754,56.75z M373.629,41.313l40.301,31.324l-53.523,10.348L320.082,51.66L373.629,41.313z M481.34,59.606
	l-41.09,7.941l-40.301-31.324l74.09-14.32L481.34,59.606z M54.211,103.051l40.316,31.336l-28.961,5.598
	c-5.586-7.082-14.238-11.641-23.941-11.641c-5.551,0-10.75,1.496-15.238,4.094l-4.48-23.141L54.211,103.051z M31.304,187.481
	c3.227,1.164,6.699,1.801,10.32,1.801c13.273,0,24.586-8.527,28.762-20.387h29.52l-28.836,38.41H31.304V187.481z M421.617,207.305
	l28.836-38.41h41.379v38.41H421.617z"/>
<path fill="#FFFFFF" d="M451.136,334.86c5.57,0,10.086-4.512,10.086-10.082v-41.25c0-5.57-4.516-10.086-10.086-10.086H66.332
	c-5.57,0-10.086,4.516-10.086,10.086v41.25c0,5.57,4.516,10.082,10.086,10.082H451.136z M441.054,314.692H328.863V293.61h112.191
	V314.692z M308.695,314.692H192.113V293.61h116.582V314.692z M76.418,293.61h95.527v21.082H76.418V293.61z"/>
<path fill="#FFFFFF" d="M259.527,469.844h-0.168c-5.57,0-10.086,4.512-10.086,10.082s4.516,10.086,10.086,10.086h0.168
	c5.57,0,10.086-4.516,10.086-10.086S265.097,469.844,259.527,469.844z"/>
</svg>
