<?xml version="1.0" encoding="utf-8"?>
<!-- Generator: Adobe Illustrator 15.0.0, SVG Export Plug-In . SVG Version: 6.00 Build 0)  -->
<!DOCTYPE svg PUBLIC "-//W3C//DTD SVG 1.1//EN" "http://www.w3.org/Graphics/SVG/1.1/DTD/svg11.dtd">
<svg version="1.1" id="Capa_1" xmlns="http://www.w3.org/2000/svg" xmlns:xlink="http://www.w3.org/1999/xlink" x="0px" y="0px"
	 width="512px" height="512px" viewBox="0 0 512 512" enable-background="new 0 0 512 512" xml:space="preserve">
<g>
	<g>
		<path fill="#FFFFFF" d="M484.301,25.252H201.45c-15.274,0-27.7,12.431-27.7,27.71v111.695H27.703
			C12.428,164.657,0,177.086,0,192.361V340.43c0,4.143,3.358,7.5,7.5,7.5c4.143,0,7.5-3.357,7.5-7.5V192.361
			c0-7.005,5.699-12.703,12.703-12.703h181.784c4.142,0,7.5-3.356,7.5-7.5c0-4.143-3.358-7.5-7.5-7.5H188.75V52.962
			c0-7.008,5.697-12.71,12.7-12.71h282.851c7.003,0,12.699,5.702,12.699,12.71v75.54c0,4.143,3.358,7.5,7.5,7.5
			c4.143,0,7.5-3.357,7.5-7.5v-75.54C512,37.683,499.574,25.252,484.301,25.252L484.301,25.252z"/>
		<path fill="#FFFFFF" d="M504.5,156.044c-4.142,0-7.5,3.356-7.5,7.5v91.448c0,7.003-5.696,12.699-12.699,12.699h-22.23
			c-4.142,0-7.5,3.357-7.5,7.5v46.543l-51.847-51.847c-1.406-1.406-3.314-2.196-5.303-2.196h-59.169v-58.333
			c1.596-1.636,3.145-3.289,4.645-4.957c16.396,18.261,38.452,34.778,68.137,45.521c0.843,0.305,1.704,0.449,2.553,0.449
			c3.067,0,5.947-1.897,7.053-4.949c1.41-3.896-0.605-8.195-4.5-9.605c-27.918-10.104-48.459-25.851-63.577-43.188
			c28.259-37.681,35.688-79.338,37.585-95.805h22.43c4.143,0,7.5-3.356,7.5-7.5c0-4.143-3.357-7.5-7.5-7.5h-62.201V65.081
			c0-4.144-3.357-7.5-7.5-7.5c-4.142,0-7.5,3.356-7.5,7.5v16.743h-62.201c-4.142,0-7.5,3.357-7.5,7.5c0,4.144,3.358,7.5,7.5,7.5
			h101.811c-2.048,15.412-9.06,50.987-32.087,83.535c-10.17-14.301-17.156-29.021-21.918-42.085
			c-1.418-3.892-5.724-5.895-9.615-4.479c-3.892,1.419-5.896,5.724-4.478,9.615c2.531,6.942,5.643,14.316,9.449,21.857
			c-1.867-0.397-3.802-0.612-5.785-0.612h-65.96c-4.142,0-7.5,3.357-7.5,7.5c0,4.144,3.358,7.5,7.5,7.5h65.96
			c7.004,0,12.703,5.698,12.703,12.703v202.033c0,7.005-5.699,12.703-12.703,12.703H114.577c-1.989,0-3.896,0.79-5.303,2.196
			L57.427,461.14v-46.544c0-4.144-3.357-7.5-7.5-7.5H27.703c-7.004,0-12.703-5.698-12.703-12.703v-18.955c0-4.143-3.357-7.5-7.5-7.5
			c-4.142,0-7.5,3.357-7.5,7.5v18.955c0,15.275,12.429,27.703,27.703,27.703h14.724v57.149c0,3.033,1.827,5.77,4.631,6.93
			c0.928,0.385,1.901,0.57,2.868,0.57c1.952,0,3.87-0.762,5.306-2.195l62.454-62.454h192.865c15.274,0,27.703-12.428,27.703-27.703
			V282.692h56.062l62.453,62.453c1.435,1.436,3.353,2.196,5.305,2.196c0.966,0,1.941-0.188,2.869-0.571
			c2.803-1.16,4.63-3.896,4.63-6.929v-57.149h14.73c15.273,0,27.7-12.427,27.7-27.699v-91.448
			C512,159.401,508.642,156.044,504.5,156.044z"/>
		<path fill="#FFFFFF" d="M105.951,384.941l14.787-38.823h96.912l14.644,38.804c1.135,3.003,3.987,4.854,7.02,4.854
			c0.879,0,1.774-0.155,2.646-0.484c3.875-1.462,5.832-5.789,4.369-9.665l-66.152-175.292c-0.025-0.068-0.053-0.138-0.08-0.205
			c-1.786-4.341-5.971-7.145-10.663-7.145c-0.004,0-0.009,0-0.013,0c-4.696,0.005-8.881,2.816-10.659,7.164
			c-0.023,0.058-0.046,0.113-0.067,0.171l-66.76,175.285c-1.475,3.87,0.468,8.203,4.339,9.679
			C100.144,390.757,104.476,388.813,105.951,384.941L105.951,384.941z M169.416,218.307l42.573,112.812H126.45L169.416,218.307z"/>
	</g>
</g>
</svg>
