<?xml version="1.0" encoding="utf-8"?>
<!-- Generator: Adobe Illustrator 15.0.0, SVG Export Plug-In . SVG Version: 6.00 Build 0)  -->
<!DOCTYPE svg PUBLIC "-//W3C//DTD SVG 1.1//EN" "http://www.w3.org/Graphics/SVG/1.1/DTD/svg11.dtd">
<svg version="1.1" id="Capa_1" xmlns="http://www.w3.org/2000/svg" xmlns:xlink="http://www.w3.org/1999/xlink" x="0px" y="0px"
	 width="512px" height="512px" viewBox="0 0 512 512" enable-background="new 0 0 512 512" xml:space="preserve">
<g>
	<path fill="#FFFFFF" d="M316,306c0-33.084-26.916-60-60-60s-60,26.916-60,60s26.916,60,60,60S316,339.084,316,306z M256,346
		c-22.056,0-40-17.944-40-40c0-22.057,17.944-40,40-40c22.057,0,40,17.943,40,40C296,328.056,278.056,346,256,346z"/>
	<path fill="#FFFFFF" d="M152,306c0-33.084-26.916-60-60-60s-60,26.916-60,60s26.916,60,60,60S152,339.084,152,306z M92,346
		c-22.056,0-40-17.944-40-40c0-22.057,17.944-40,40-40c22.057,0,40,17.943,40,40C132,328.056,114.056,346,92,346z"/>
	<path fill="#FFFFFF" d="M480,306c0-33.084-26.916-60-60-60s-60,26.916-60,60s26.916,60,60,60S480,339.084,480,306z M420,346
		c-22.056,0-40-17.944-40-40c0-22.057,17.944-40,40-40c22.057,0,40,17.943,40,40C460,328.056,442.056,346,420,346z"/>
	<path fill="#FFFFFF" d="M420,366c-35.894,0-66.923,20.77-82,49.47C322.963,386.844,292.01,366,256,366
		c-35.894,0-66.923,20.77-82,49.47C158.962,386.844,128.01,366,92,366c-49.854,0-92,40.334-92,90v46c0,5.521,4.479,10,10,10h492
		c5.522,0,10-4.479,10-10v-46C512,406.338,469.857,366,420,366z M256,386c39.028,0,72,32.056,72,70v36H184v-36
		C184,418.056,216.972,386,256,386z M20,456c0-37.944,32.973-70,72-70c39.028,0,72,32.056,72,70v36H20V456z M492,492H348v-36
		c0-37.944,32.973-70,72-70c39.028,0,72,32.056,72,70V492z"/>
	<path fill="#FFFFFF" d="M256,60c-16.542,0-30,13.458-30,30s13.458,30,30,30s30-13.458,30-30S272.542,60,256,60z M256,100
		c-5.514,0-10-4.486-10-10c0-5.515,4.486-10,10-10c5.515,0,10,4.485,10,10C266,95.514,261.514,100,256,100z"/>
	<path fill="#FFFFFF" d="M146,90c0,16.542,13.458,30,30,30s30-13.458,30-30s-13.458-30-30-30S146,73.458,146,90z M186,90
		c0,5.514-4.485,10-10,10c-5.514,0-10-4.486-10-10c0-5.515,4.486-10,10-10C181.514,80,186,84.486,186,90z"/>
	<path fill="#FFFFFF" d="M366,90c0-16.542-13.457-30-30-30c-16.541,0-30,13.458-30,30s13.459,30,30,30
		C352.543,120,366,106.542,366,90z M326,90c0-5.515,4.486-10,10-10c5.515,0,10,4.485,10,10c0,5.514-4.485,10-10,10
		C330.486,100,326,95.514,326,90z"/>
	<circle fill="#FFFFFF" cx="256" cy="10" r="10"/>
	<path fill="#FFFFFF" d="M266.829,166.013L256,190.92l-10.829-24.907C243.583,162.361,239.981,160,236,160H136
		c-38.599,0-70-31.401-70-70c0-38.6,31.401-70,70-70h75c5.522,0,10-4.479,10-10c0-5.522-4.478-10-10-10h-75
		C86.374,0,46,40.374,46,90s40.374,90,90,90h93.443l17.386,39.986c1.588,3.651,5.189,6.014,9.171,6.014
		c3.982,0,7.583-2.361,9.171-6.014L282.557,180H376c49.627,0,90-40.374,90-90S425.627,0,376,0h-75c-5.521,0-10,4.478-10,10
		c0,5.521,4.479,10,10,10h75c38.6,0,70,31.4,70,70c0,38.599-31.4,70-70,70H276C272.019,160,268.417,162.361,266.829,166.013
		L266.829,166.013z"/>
</g>
</svg>
