<?xml version="1.0" encoding="utf-8"?>
<!-- Generator: Adobe Illustrator 15.0.0, SVG Export Plug-In . SVG Version: 6.00 Build 0)  -->
<!DOCTYPE svg PUBLIC "-//W3C//DTD SVG 1.1//EN" "http://www.w3.org/Graphics/SVG/1.1/DTD/svg11.dtd">
<svg version="1.1" id="Capa_1" xmlns="http://www.w3.org/2000/svg" xmlns:xlink="http://www.w3.org/1999/xlink" x="0px" y="0px"
	 width="496px" height="496px" viewBox="0 0 496 496" enable-background="new 0 0 496 496" xml:space="preserve">
<path fill="#FFFFFF" d="M496,208h-17.977l-26.793,14.098c-3.016-1.664-6.152-3.074-9.535-3.922l-33.703-8.434v-3.832
	C422.902,195.504,432,178.313,432,160v-13.984c0-31.078-24.352-57.086-54.281-57.992c-1.52-0.039-3.016,0.016-4.52,0.09
	l8.738-20.457l-42.363-42.352l-24.973,16.254c-9.488-5.344-19.523-9.504-29.945-12.422L278.488,0h-60.969l-6.168,29.145
	c-10.422,2.918-20.465,7.078-29.945,12.422l-24.973-16.254l-42.328,42.328l8.59,20.473c-0.328-0.016-0.641-0.074-0.969-0.082
	c-15.32-0.445-29.75,5.145-40.711,15.785C70.039,114.449,64,128.719,64,144v16c0,18.312,9.09,35.496,24,45.902v3.84l-21.984,5.496
	L26.168,192H0v165.77L78.703,384h15.328l1.914-6.703l24.125,14.48c0.395,13.117,10.914,23.672,24.02,24.133
	c0.461,13.051,10.949,23.539,24,24c0.461,13.051,10.949,23.539,24,24c0.477,13.355,11.414,24.09,24.879,24.09
	c5,0,9.902-1.559,14.023-4.336l7.086,6.258c4.441,3.91,10.16,6.078,16.098,6.078h1.48c13.312,0,24.145-10.762,24.312-24.031
	c13.168-0.168,23.832-10.832,24-24c13.176-0.168,23.848-10.848,24-24.023C341.265,423.633,352,412.77,352,399.399
	c0-0.805-0.039-1.598-0.121-2.398L496,324.946V208z M416,146.016V160c0,14.199-7.672,27.465-20.023,34.617l-4,2.312l0.031,25.316
	l39.969,9.984L344,278.535v-21.551c0-10.754-4.344-20.602-11.457-27.879L360,222.246V196.91l-3.992-2.309
	C343.664,187.465,336,174.199,336,160v-16c0-10.91,4.312-21.113,12.152-28.711c7.832-7.594,18.223-11.688,29.086-11.266
	C398.609,104.664,416,123.504,416,146.016z M260.062,272.246l-36.215-11.574c-16.504-5.289-34.367-6.078-51.262-2.336L168,259.352
	v-2.367c0-11.031,7.48-20.609,18.176-23.289L232,222.246V196.91l-3.992-2.309C215.664,187.465,208,174.199,208,160v-16
	c0-10.91,4.312-21.113,12.152-28.711c7.832-7.594,18.289-11.688,29.086-11.266c21.371,0.641,38.762,19.48,38.762,41.992V160
	c0,14.199-7.672,27.465-20.023,34.617l-4,2.312l0.031,25.316l45.816,11.449c10.695,2.68,18.176,12.258,18.176,23.289v29.977
	L326.023,288h-4.902l-49.184-14.055C268.062,272.848,264.07,272.399,260.062,272.246z M169.793,119.735
	C184.816,90.625,215.054,72,248,72c32.633,0,62.742,18.375,77.879,47.09C322.07,126.727,320,135.184,320,144v16
	c0,18.312,9.09,35.496,24,45.902v3.84l-32,8.012l-32.008-8.012v-3.832C294.902,195.504,304,178.313,304,160v-13.984
	c0-31.078-24.352-57.086-54.281-57.992c-15.312-0.449-29.75,5.145-40.711,15.785C198.039,114.449,192,128.719,192,144v16
	c0,18.312,9.09,35.496,24,45.902v3.84l-32,8.012l-32.008-8.012v-3.832C166.902,195.504,176,178.313,176,160v-13.984
	C176,136.602,173.734,127.664,169.793,119.735z M133,71.352l25.559-25.559l22.496,14.641l4.305-2.641
	c10.785-6.609,22.441-11.449,34.641-14.367l4.922-1.18L230.488,16h35.031l5.551,26.238l4.922,1.176
	c12.199,2.922,23.855,7.762,34.641,14.371l4.305,2.641l22.496-14.641l25.527,25.535l-9.074,21.246
	c-6.176,2.656-11.902,6.395-16.887,11.227c-0.328,0.32-0.609,0.664-0.93,0.992C317.222,74.824,283.902,56,248,56
	c-36.16,0-69.574,19-88.375,49.266c-5.031-5.266-11.016-9.531-17.648-12.512L133,71.352z M104,222.246V196.91l-3.992-2.309
	C87.664,187.465,80,174.199,80,160v-16c0-10.91,4.312-21.113,12.152-28.711c7.832-7.594,18.246-11.688,29.086-11.266
	c21.371,0.641,38.762,19.48,38.762,41.992V160c0,14.199-7.672,27.465-20.023,34.617l-4,2.312l0.031,25.316l27.449,6.859
	C156.344,236.383,152,246.231,152,256.985v5.926l-24.953,5.547l0.648-2.266L128,251.406l-42.191-24.613L104,222.246z M16,208h5.832
	l57.535,33.559L50.336,357.68L16,346.231V208z M81.297,368l-15.746-5.246l28.203-112.801L112,260.594v2.285L81.969,368H81.297z
	 M136,391.031c0-2.359,0.953-4.672,2.625-6.344l14.062-14.062c1.672-1.672,3.984-2.625,6.344-2.625c4.945,0,8.969,4.023,8.969,8.969
	c0,2.359-0.953,4.672-2.625,6.344l-14.062,14.062c-1.672,1.672-3.984,2.625-6.344,2.625C140.023,400,136,395.977,136,391.031z
	 M160,415.031c0-2.359,0.953-4.672,2.625-6.344l14.062-14.062c1.672-1.672,3.984-2.625,6.344-2.625c4.945,0,8.969,4.023,8.969,8.969
	c0,2.359-0.953,4.672-2.625,6.344l-14.062,14.062c-1.672,1.672-3.984,2.625-6.344,2.625C164.023,424,160,419.977,160,415.031z
	 M184,439.031c0-2.359,0.953-4.672,2.625-6.344l14.062-14.062c1.672-1.672,3.984-2.625,6.344-2.625c4.945,0,8.969,4.023,8.969,8.969
	c0,2.359-0.953,4.672-2.625,6.344l-14.062,14.062c-1.672,1.672-3.984,2.625-6.344,2.625C188.023,448,184,443.977,184,439.031z
	 M216.969,472c-4.945,0-8.969-4.023-8.969-8.969c0-2.359,0.953-4.672,2.625-6.344l14.062-14.062
	c1.672-1.672,3.984-2.625,6.344-2.625c4.945,0,8.969,4.023,8.969,8.969c0,2.359-0.953,4.672-2.625,6.344l-14.062,14.062
	C221.64,471.047,219.328,472,216.969,472z M255.656,480h-1.48c-2.039,0-3.992-0.742-5.512-2.09l-5.984-5.277l6.008-6.008
	c2.145-2.145,3.809-4.695,5.039-7.434l7.273,6.055c1.902,1.586,3,3.922,3,6.41C264,476.258,260.258,480,255.656,480z M327.398,408
	h-1.383c-2.008,0-3.969-0.711-5.504-2l-43.383-36.152l-10.25,12.297l42.129,35.102c1.895,1.586,2.992,3.922,2.992,6.41
	c0,4.602-3.742,8.344-8.344,8.344h-1.746c-1.941,0-3.84-0.688-5.336-1.938l-43.453-36.207l-10.25,12.297L285,441.258
	c1.902,1.574,3,3.91,3,6.398c0,4.602-3.742,8.344-8.344,8.344c-3.07,0-6.062-1.09-8.418-3.047l-17.855-14.883
	c-3.934-8.039-12.016-13.645-21.48-13.98c-0.461-13.051-10.949-23.539-24-24c-0.461-13.051-10.949-23.539-24-24
	c-0.469-13.355-11.406-24.09-24.871-24.09c-6.574,0-13.008,2.664-17.656,7.312l-14.062,14.062c-0.84,0.84-1.535,1.793-2.242,2.738
	l-24.574-14.746l21.543-75.398l54.008-12.008c14.168-3.168,29.105-2.48,42.922,1.941l11.785,3.77l-39.953,19.977
	C181.672,304.223,176,313.406,176,323.617v1.582C176,339.977,188.023,352,202.801,352c4.855,0,9.633-1.32,13.785-3.824
	l29.789-17.863c5.984-3.586,14.016-2.801,19.184,1.848l67.594,60.832c1.809,1.641,2.848,3.969,2.848,6.406
	C336,404.145,332.144,408,327.398,408z M480,315.055l-134.777,67.395c-0.438-0.465-0.895-0.906-1.375-1.336l-67.582-60.832
	c-5.922-5.344-13.578-8.281-21.555-8.281c-5.832,0-11.559,1.586-16.574,4.594l-29.801,17.871c-1.672,1.008-3.582,1.535-5.535,1.535
	C196.84,336,192,331.16,192,325.199v-1.582c0-4.121,2.289-7.816,5.969-9.656l44.625-22.312c7.637-3.824,16.703-4.68,24.934-2.312
	l50.273,14.359L329.976,304L480,225.039V315.055z"/>
</svg>
