<?xml version="1.0" encoding="utf-8"?>
<!-- Generator: Adobe Illustrator 15.0.0, SVG Export Plug-In . SVG Version: 6.00 Build 0)  -->
<!DOCTYPE svg PUBLIC "-//W3C//DTD SVG 1.1//EN" "http://www.w3.org/Graphics/SVG/1.1/DTD/svg11.dtd">
<svg version="1.1" id="Capa_1" xmlns="http://www.w3.org/2000/svg" xmlns:xlink="http://www.w3.org/1999/xlink" x="0px" y="0px"
	 width="512px" height="512px" viewBox="0 0 512 512" enable-background="new 0 0 512 512" xml:space="preserve">
<g>
	<path fill="#FFFFFF" d="M510.302,241.625l-12.227-42.478c-0.976-3.179-5.144-6.854-10.252-4.938
		c-15.727,4.527-32.2-4.584-36.726-20.31c-4.526-15.724,4.585-32.198,20.313-36.726c3.351-0.74,7.361-4.22,6.055-9.632
		l-10.604-36.84c-3.178-11.043-10.465-20.188-20.52-25.747c-10.056-5.562-21.674-6.871-32.717-3.694L31.139,171.353
		c-11.043,3.179-20.188,10.466-25.747,20.521c-5.561,10.055-6.872,21.674-3.693,32.716c5.967,16.432,13.702,48.757,10.978,66.114
		c0,4.131,3.299,7.506,7.428,7.602c12.562,0.292,23.521,8.585,27.43,20.242c-2.783,2.239-6.004,4.008-9.587,5.13
		c-3.942,1.234-6.177,5.39-5.034,9.359l5.169,17.958c-5.078,4.139-11.327,6.466-17.978,6.621c-4.13,0.096-7.428,3.471-7.428,7.602
		v44.202c0,23.72,19.299,43.018,43.019,43.018h96.277c4.199,0,7.604-3.404,7.604-7.604s-3.404-7.604-7.604-7.604H55.695
		c-15.335,0-27.812-12.476-27.812-27.81v-37.384c5.2-0.988,10.144-2.883,14.643-5.6l2.614,9.078
		c3.178,11.043,10.465,20.188,20.52,25.747c9.087,4.741,20.224,7.371,32.716,3.692l352.192-101.37
		c-4.561,7.022-7.213,15.396-7.213,24.377c0,22.464,16.59,41.126,38.162,44.38v37.079c0,15.335-12.477,27.81-27.811,27.81H188.42
		c-4.2,0-7.604,3.404-7.604,7.604c0,4.198,3.403,7.604,7.604,7.604h265.288c23.721,0,43.018-19.298,43.018-43.018v-44.202
		c-0.063-3.324-3.041-8.013-8.487-7.582c-16.363,0-29.675-13.312-29.675-29.674s13.312-29.674,29.675-29.674
		c3.425,0.221,8.243-2.021,8.487-7.582v-4.306c3.95-3.338,7.306-7.395,9.884-12.056C512.17,264.287,513.48,252.669,510.302,241.625
		L510.302,241.625z M27.884,283.902v-18.152c20.087-0.754,35.479,19.138,29.485,38.335
		C50.809,293.722,40.142,286.282,27.884,283.902z M273.004,292.288l27.299-7.857l12.38,43.015l-27.297,7.857L273.004,292.288z
		 M493.301,266.983c-3.737,6.761-9.569,10.816-16.646,13.267l-113.733,32.735l-0.842-2.923c-1.161-4.036-5.382-6.364-9.408-5.204
		c-4.035,1.162-6.366,5.375-5.204,9.41l0.841,2.922l-21.012,6.048l-14.483-50.32c-0.557-1.938-1.862-3.575-3.627-4.552
		c-1.766-0.976-3.846-1.211-5.783-0.652l-41.912,12.062c-1.938,0.559-3.575,1.863-4.551,3.628c-0.977,1.766-1.211,3.846-0.652,5.783
		l14.484,50.321L94.17,390.34c-7.141,2.056-14.651,1.207-21.151-2.387c-6.5-3.595-11.21-9.507-13.267-16.646l-10.341-35.928
		c18.258-9.242,28.14-30.645,23.24-50.568c-5.395-21.93-25.583-35.369-47.621-34.136l-8.718-30.291
		c-2.055-7.139-1.207-14.651,2.388-21.151c3.594-6.5,9.506-11.211,16.646-13.266l254.138-73.149l0.842,2.923
		c0.959,3.333,4,5.502,7.303,5.502c0.697,0,1.405-0.097,2.108-0.299c4.035-1.162,6.365-5.375,5.203-9.41l-0.841-2.922L417.83,75.876
		c7.141-2.056,14.651-1.207,21.152,2.388c6.5,3.594,11.21,9.506,13.266,16.645l8.634,29.995
		c-19.83,9.094-30.611,31.616-24.397,53.204c6.214,21.586,27.304,34.937,48.948,32.092l10.256,35.633
		C497.742,252.972,496.895,260.483,493.301,266.983L493.301,266.983z"/>
	<path fill="#FFFFFF" d="M320.618,166.015l-5.581-19.391c-1.161-4.036-5.383-6.365-9.41-5.204c-4.035,1.162-6.365,5.375-5.204,9.41
		l5.581,19.391c1.115,2.919,4.6,6.584,9.409,5.204C319.45,174.263,321.78,170.05,320.618,166.015L320.618,166.015z"/>
	<path fill="#FFFFFF" d="M336.301,220.494l-5.582-19.392c-1.162-4.036-5.38-6.363-9.411-5.204c-4.035,1.162-6.365,5.375-5.203,9.411
		l5.582,19.392c1.116,2.919,4.599,6.583,9.41,5.203C335.133,228.743,337.463,224.53,336.301,220.494z"/>
	<path fill="#FFFFFF" d="M346.399,255.583c-1.162-4.037-5.383-6.365-9.41-5.204c-4.035,1.161-6.366,5.375-5.204,9.41l5.581,19.391
		c1.115,2.919,4.6,6.584,9.41,5.204c4.035-1.161,6.366-5.375,5.204-9.41L346.399,255.583z"/>
	<path fill="#FFFFFF" d="M427.502,135.447c0.976-1.765,1.211-3.845,0.651-5.782l-8.509-29.561c-1.161-4.035-5.379-6.365-9.41-5.204
		l-76.488,22.016c-4.034,1.162-6.365,5.375-5.203,9.41l8.508,29.56c1.548,2.91,3.168,6.389,9.41,5.204l76.488-22.017
		C424.888,138.516,426.525,137.212,427.502,135.447L427.502,135.447z M349.561,144.373l-4.302-14.946l61.875-17.809l4.302,14.945
		L349.561,144.373z"/>
	<path fill="#FFFFFF" d="M415.531,251.265l40.864-11.762c4.035-1.162,6.366-5.375,5.204-9.411c-1.162-4.037-5.382-6.365-9.409-5.204
		l-40.864,11.762c-4.034,1.162-6.365,5.375-5.204,9.41c0.96,3.333,4,5.502,7.304,5.502
		C414.121,251.564,414.829,251.467,415.531,251.265L415.531,251.265z"/>
	<path fill="#FFFFFF" d="M459.728,251.084l-40.864,11.761c-4.035,1.162-6.366,5.375-5.204,9.41c0.959,3.334,4,5.503,7.304,5.503
		c0.695,0,1.404-0.097,2.106-0.298l40.864-11.762c4.035-1.161,6.366-5.375,5.204-9.409
		C467.975,252.251,463.757,249.923,459.728,251.084L459.728,251.084z"/>
	<path fill="#FFFFFF" d="M145.519,330.177l-57.628,16.587c-4.035,1.162-6.366,5.375-5.204,9.41c0.959,3.333,4,5.502,7.303,5.502
		c0.697,0,1.405-0.097,2.107-0.298l57.628-16.587c4.035-1.162,6.365-5.375,5.204-9.41
		C153.767,331.344,149.547,329.016,145.519,330.177z"/>
	<path fill="#FFFFFF" d="M438.967,420.816c4.199,0,7.604-3.404,7.604-7.604v-29.439c0-4.198-3.404-7.604-7.604-7.604h-83.955
		c-4.2,0-7.604,3.403-7.604,7.604v29.439c0,4.198,3.404,7.604,7.604,7.604H438.967z M362.614,391.378h68.748v14.231h-68.748V391.378
		z"/>
	<path fill="#FFFFFF" d="M317.781,404.573c4.2,0,7.604-3.403,7.604-7.604s-3.404-7.604-7.604-7.604h-80.834
		c-4.2,0-7.604,3.404-7.604,7.604s3.404,7.604,7.604,7.604H317.781z"/>
	<path fill="#FFFFFF" d="M237.094,210.781c-3.006,0.865-10.682,3.392-20.875,6.822l-43.455-41.14
		c-1.955-1.851-4.741-2.531-7.33-1.786l-23.052,6.635c-3.648,1.131-7.412,6.092-4.096,11.711l29.262,41.188
		c-25.283,8.696-49.366,17.047-56.786,19.622l-25.147-6.529c-5.205-1.449-11.909,4.398-8.476,11.197l19.242,32.923
		c2.349,2.369,3.675,4.64,9.032,3.354l13.79-4.73c4.163-0.959,31.539-7.266,60.388-13.998l-2.888,50.442
		c0.607,3.666,1.639,8.871,9.694,7.741l23.051-6.635c2.588-0.745,4.588-2.802,5.26-5.409l14.936-57.946
		c10.454-2.513,18.301-4.454,21.305-5.319c17.176-4.944,23.785-26.48,24.482-28.919c0.799-2.795-0.066-5.802-2.229-7.745
		C271.315,220.565,254.257,205.841,237.094,210.781L237.094,210.781z M156.896,192.96l8.567-2.466l34.465,32.629
		c-5.554,1.891-11.414,3.894-17.384,5.939L156.896,192.96z M201.068,314.188l-8.568,2.466l2.53-44.214
		c6.143-1.44,12.173-2.859,17.882-4.21L201.068,314.188z M246.744,244.312c-27.328,7.244-126.823,29.812-132.099,31.225
		l-8.275,2.839l-6.87-11.753l9.67,2.511c7.192,0.265,9.396-2.478,23.287-6.719c23.813-8.251,64.468-22.249,84.307-28.945
		c12.082-4.085,21.297-7.139,24.536-8.072c5.651-1.628,12.967,1.991,17.729,5.155C256.695,235.755,252.446,242.67,246.744,244.312
		L246.744,244.312z"/>
</g>
</svg>
