<?xml version="1.0" encoding="utf-8"?>
<!-- Generator: Adobe Illustrator 15.0.0, SVG Export Plug-In . SVG Version: 6.00 Build 0)  -->
<!DOCTYPE svg PUBLIC "-//W3C//DTD SVG 1.1//EN" "http://www.w3.org/Graphics/SVG/1.1/DTD/svg11.dtd">
<svg version="1.1" id="Layer_1" xmlns="http://www.w3.org/2000/svg" xmlns:xlink="http://www.w3.org/1999/xlink" x="0px" y="0px"
	 width="512px" height="512px" viewBox="0 0 512 512" enable-background="new 0 0 512 512" xml:space="preserve">
<path fill="#FFFFFF" d="M503.923,496.005h-65.165c30.616-28.888,21.159-78.815-16.239-95.44c-0.759-0.338,5.128,1.425-89.565-26.266
	c0.021-10.414,0.104-19.462,0.25-27.367h57.636c32.671,0,50.114-37.862,30.168-62.756l-15.205-19.015
	c-2.758-3.448-7.791-4.01-11.24-1.25c-3.45,2.759-4.011,7.791-1.252,11.241l15.211,19.02c11.681,14.579,1.451,36.766-17.682,36.766
	c-131.886,0-122.72,0.717-125.132-1.674c-2.439-2.461-1.709,2.021-1.709-77.521c12.023,6.166,15.97,32.516,15.995,45.826
	c0,4.416,3.581,7.997,7.997,7.997h70.459c6.651,0,10.408-7.69,6.29-12.937l-38.468-48.993c-2.726-3.473-7.752-4.081-11.229-1.354
	c-3.475,2.728-4.079,7.755-1.354,11.229l11.895,15.15c-1.84,6.902-3.325,13.383-4.521,20.909h-25.421
	c-2.105-27.23-12.715-56.67-39.642-55.169c-26.935-1.497-37.531,27.889-39.641,55.169h-25.421
	c-1.196-7.526-2.681-14.006-4.521-20.909l11.894-15.15c2.728-3.475,2.122-8.501-1.354-11.229s-8.503-2.121-11.229,1.354
	l-38.467,48.993c-4.107,5.232-0.379,12.937,6.29,12.937h70.458c4.411,0,7.989-3.578,7.998-7.99
	c0.024-13.411,3.996-39.68,15.994-45.833c0,79.441,0.713,75.079-1.663,77.476c-2.477,2.457,7.293,1.72-125.177,1.72
	c-19.12,0-29.372-22.177-17.677-36.771l64.855-81.101c16.325-11.658,35.539-17.814,55.619-17.814
	c65.047,0,88.818-4.089,119.361,17.384l9.117,11.411c2.757,3.452,7.792,4.014,11.239,1.256c3.451-2.757,4.014-7.789,1.257-11.24
	c-10.428-13.051-10.133-12.879-11.393-13.785c-17.687-12.732-38.662-19.966-60.373-20.907c6.623-7.24,8.385-13.129,15.069-28.293
	c7.022-15.993,10.913-33.465,10.913-51.569c0-18.724-9.696-36.789-27.575-48.048c0-16.48,1.825-28.766-10.421-41.059
	c-22.247-22.157-60.736-6.646-60.736,25.18v15.879c-16.64,10.479-27.574,27.911-27.574,48.048c0,17.726,3.672,35.076,10.918,51.58
	c7.221,16.38,8.759,21.393,15.077,28.294c-22.848,1.028-43.984,8.979-60.832,21.418c-1.302,0.964,2.875-4.022-67.011,83.37
	c-20.366,25.418-1.894,62.763,30.163,62.763h57.636c0.146,7.905,0.228,16.953,0.25,27.367
	c-94.836,27.732-88.804,25.928-89.561,26.263c-37.497,16.641-46.765,66.66-16.203,95.443H8.079c-4.417,0-7.998,3.58-7.998,7.997
	S3.662,512,8.079,512h495.844c4.417,0,7.998-3.581,7.998-7.998S508.34,496.005,503.923,496.005z M338.19,284.718l3.81,4.853h-4.726
	C337.562,287.912,337.867,286.301,338.19,284.718z M173.81,284.718c0.324,1.583,0.628,3.195,0.916,4.853h-4.726L173.81,284.718z
	 M236.417,35.58c0-17.366,21.127-26.122,33.431-13.869c6.719,6.746,5.736,13.649,5.736,22.508c-12.715-3.8-26.432-3.806-39.168,0
	L236.417,35.58L236.417,35.58z M222.374,69.965c23.878-21.705,64.843-14.238,77.429,13.899
	c-21.735-4.468-35.442,4.356-46.829,11.699c-13.18,8.504-22.916,14.774-44.127,4.217C208.845,87.885,213.969,77.606,222.374,69.965
	L222.374,69.965z M210.372,117.823c21.365,7.742,34.604,1.934,51.271-8.817c11.776-7.597,22.073-14.222,41.492-7.696
	c-0.427,26.056-9.25,42.678-16.639,59.439c-10.818,24.602-50.184,24.576-60.994-0.006
	C218.1,143.953,213.138,134.323,210.372,117.823z M191.719,471.885c-9.77,4.886-21.311,8.923-25.381,23.96h-12.652v-33.468
	L191.719,471.885z M183.7,495.845c2.804-4.16,2.967-3.55,34.511-19.322c0.173-0.087,0.558-0.302,0.825-0.479
	c15.01-10.006,17.115-12.465,24.821-12.465c7.946,0,14.971,5.064,17.476,12.602l0.867,2.607c1.319,3.967,5.473,6.246,9.528,5.235
	l86.585-21.646v33.469L183.7,495.845L183.7,495.845z M70.959,453.698c0-16.618,9.741-31.519,24.551-38.307l92.688-27.103h86.877
	c4.416,0,7.997-3.581,7.997-7.998c0-4.416-3.581-7.997-7.997-7.997h-80.037c-0.027-9.556-0.108-17.941-0.243-25.362h47.419
	c5.056,0,9.862-1.723,13.782-4.918c3.896,3.185,8.718,4.918,13.789,4.918h47.419c-0.198,10.982-0.251,22.414-0.251,33.399
	c0.007,1.554,0.469,3.11,1.374,4.446c2.324,3.433-3.599,0.858,98.16,30.614c26.585,12.208,32.995,47.327,12.211,68.111
	c-7.959,7.959-18.544,12.343-29.803,12.343h-24.588v-37.467l7.73-1.932c4.285-1.072,6.891-5.414,5.818-9.699
	c-1.069-4.283-5.405-6.889-9.698-5.819l-103.431,25.857c-9.509-19.352-33.699-24.631-50.639-13.332l-10.949,7.3l-79.301-19.825
	c-4.282-1.067-8.627,1.533-9.697,5.819c-1.072,4.285,1.533,8.627,5.817,9.699l7.731,1.932v37.467h-24.586
	C89.865,495.845,70.959,476.939,70.959,453.698L70.959,453.698z"/>
<path fill="#FFFFFF" d="M373.666,250.581c2.77,3.45,7.802,3.99,11.243,1.229c3.444-2.766,3.994-7.799,1.229-11.243l-1.26-1.569
	c-2.766-3.445-7.798-3.995-11.244-1.23c-3.443,2.766-3.993,7.799-1.229,11.244L373.666,250.581z"/>
</svg>
